<?xml version="1.0" standalone="no"?>
<!DOCTYPE svg PUBLIC "-//W3C//DTD SVG 20010904//EN"
 "http://www.w3.org/TR/2001/REC-SVG-20010904/DTD/svg10.dtd">
<svg version="1.0" xmlns="http://www.w3.org/2000/svg"
 width="260.000000pt" height="260.000000pt" viewBox="0 0 260.000000 260.000000"
 preserveAspectRatio="xMidYMid meet">
<metadata>
Created by potrace 1.11, written by Peter Selinger 2001-2013
</metadata>
<g transform="translate(0.000000,260.000000) scale(0.100000,-0.100000)"
fill="#000000" stroke="none">
<path d="M1037 2171 c-9 -15 -15 -30 -13 -32 2 -2 7 -21 10 -43 4 -21 8 -42
11 -46 2 -3 7 -22 10 -41 7 -47 14 -81 39 -196 9 -40 18 -87 21 -105 3 -17 7
-34 9 -37 2 -3 7 -22 10 -41 8 -50 22 -121 46 -230 11 -52 25 -115 30 -140 5
-25 18 -85 29 -135 11 -49 22 -101 24 -115 3 -14 14 -69 26 -123 12 -54 24
-114 27 -135 3 -20 8 -40 11 -44 2 -5 -3 -8 -11 -8 -9 0 -16 3 -16 8 -1 4 -5
25 -9 47 -5 22 -23 108 -40 190 -18 83 -34 165 -37 184 -2 19 -7 38 -10 43 -3
4 -8 21 -10 36 -3 15 -14 70 -25 122 -32 151 -69 332 -75 365 -3 17 -9 46 -14
65 -5 19 -19 82 -30 140 -12 58 -24 114 -26 125 -2 11 -7 36 -11 55 -4 19 -8
38 -9 43 -1 4 -2 11 -3 15 0 5 -19 18 -41 31 l-40 23 -16 -38 c-8 -20 -16 -44
-16 -53 -1 -14 86 -326 152 -551 16 -54 66 -227 87 -305 3 -11 39 -137 80
-279 67 -240 77 -285 54 -260 -9 10 -37 93 -45 134 -3 14 -21 79 -41 145 -31
108 -57 199 -100 350 -7 28 -34 122 -59 210 -26 88 -62 216 -82 285 -78 274
-69 254 -120 278 -24 12 -48 22 -53 22 -4 0 -14 -24 -21 -54 -10 -42 -10 -62
-2 -83 30 -75 35 -89 39 -107 2 -11 7 -24 11 -30 5 -6 17 -33 26 -61 10 -27
24 -63 31 -80 7 -16 24 -61 38 -100 14 -38 30 -81 36 -95 6 -14 33 -86 61
-160 28 -74 57 -151 65 -170 77 -194 186 -492 181 -497 -11 -11 -24 10 -56 97
-17 47 -40 107 -51 133 -11 26 -43 110 -71 185 -28 75 -58 157 -68 182 -9 25
-75 196 -145 380 -70 184 -132 340 -137 346 -10 13 -66 26 -79 19 -7 -5 4 -37
62 -175 10 -25 55 -135 99 -245 123 -303 231 -568 241 -590 16 -36 110 -269
125 -308 10 -29 11 -39 1 -42 -7 -2 -27 -8 -46 -14 -19 -6 -35 -10 -36 -9 -1
2 -12 30 -25 63 -13 33 -29 74 -36 90 -7 17 -47 118 -90 225 -42 107 -127 324
-190 482 -62 158 -128 325 -145 370 -46 121 -44 120 -133 64 -56 -35 -78 -54
-82 -74 -3 -15 -10 -43 -15 -62 -4 -19 -11 -53 -15 -75 -7 -49 -12 -55 -55
-60 -102 -12 -136 -18 -150 -26 -16 -8 -56 -124 -51 -147 2 -7 91 -192 199
-410 107 -218 226 -461 264 -538 38 -78 75 -146 82 -151 8 -7 69 12 192 59
294 112 336 126 415 133 80 7 195 7 245 0 16 -2 50 -7 75 -10 25 -2 56 -7 70
-10 14 -3 34 -8 45 -10 11 -3 41 -11 67 -19 42 -12 48 -12 61 3 8 9 81 117
162 241 82 124 200 304 264 400 64 96 120 183 126 192 5 9 47 72 92 139 44 67
79 128 76 135 -8 21 -263 168 -273 158 -8 -8 -100 -240 -144 -364 -31 -86
-118 -317 -126 -335 -9 -19 -44 -114 -131 -350 -55 -151 -58 -156 -78 -143
-16 10 -14 20 24 117 35 88 122 317 250 656 13 33 53 139 90 235 61 160 80
234 67 268 -6 18 -92 16 -92 -2 0 -8 -34 -112 -76 -232 -90 -264 -153 -444
-161 -464 -3 -8 -7 -19 -9 -25 -7 -27 -175 -509 -179 -513 -2 -2 -8 -1 -13 2
-5 3 15 76 45 163 31 87 79 228 108 313 58 169 113 326 122 350 3 8 7 20 9 25
1 6 28 82 59 170 31 88 58 165 59 170 1 6 8 29 16 52 11 37 11 45 -7 74 -16
28 -26 34 -60 37 -42 3 -51 -3 -59 -41 -2 -12 -13 -56 -24 -97 -11 -41 -22
-84 -24 -95 -5 -27 -50 -207 -136 -540 -40 -154 -73 -287 -75 -295 -2 -8 -11
-44 -20 -80 -9 -36 -18 -72 -20 -80 -15 -74 -29 -110 -42 -110 -9 0 -13 6 -10
14 5 13 133 517 142 556 1 8 8 35 15 60 7 25 14 52 15 60 2 8 40 158 84 332
45 174 81 325 81 335 -1 10 -11 31 -25 47 -23 29 -25 29 -64 17 -23 -6 -41
-17 -42 -24 0 -7 -2 -19 -4 -27 -2 -8 -6 -31 -9 -50 -4 -19 -9 -42 -11 -50 -2
-8 -7 -40 -10 -70 -4 -30 -8 -57 -10 -60 -3 -5 -10 -48 -20 -120 -1 -8 -5 -31
-9 -50 -3 -19 -8 -46 -10 -60 -2 -14 -7 -36 -10 -50 -3 -14 -8 -43 -11 -64 -3
-21 -15 -91 -26 -155 -12 -64 -23 -127 -25 -141 -1 -14 -12 -77 -23 -140 -12
-63 -23 -131 -26 -150 -15 -95 -34 -192 -38 -197 -15 -14 -25 10 -17 40 5 17
11 48 14 67 3 19 13 76 21 125 9 50 22 131 31 180 8 50 17 101 19 115 6 30 43
242 50 285 3 17 8 46 11 65 3 19 8 49 11 65 2 17 6 41 9 55 7 40 35 203 38
225 2 11 9 52 16 91 12 70 12 72 -15 118 -15 26 -34 50 -42 53 -7 3 -38 -5
-68 -17 -50 -20 -55 -25 -56 -54 0 -17 -2 -56 -4 -86 -11 -202 -17 -300 -20
-335 -3 -22 -7 -98 -10 -170 -4 -71 -8 -140 -10 -153 -2 -13 -7 -81 -10 -150
-4 -70 -8 -147 -10 -172 -6 -91 -20 -282 -24 -327 0 -7 -6 -13 -12 -13 -7 0
-8 32 -4 96 10 159 16 265 20 344 5 102 15 256 20 305 2 22 7 96 10 165 4 69
8 150 10 180 3 30 7 97 10 149 3 51 8 119 10 150 4 50 1 60 -21 84 -31 33 -51
34 -114 2 l-50 -25 6 -253 c7 -282 8 -347 19 -839 6 -292 5 -348 -7 -348 -10
0 -14 25 -14 118 -1 64 -5 275 -9 467 -10 457 -12 531 -15 707 -2 80 -6 150
-9 155 -11 16 -60 43 -78 43 -9 0 -32 -10 -50 -22 -30 -21 -32 -27 -28 -63 3
-22 8 -60 11 -85 3 -25 9 -79 14 -120 6 -41 12 -97 15 -125 3 -27 8 -57 10
-65 2 -8 7 -44 10 -80 3 -36 7 -76 10 -90 2 -14 7 -50 11 -80 3 -30 8 -68 10
-85 2 -16 6 -50 9 -75 6 -49 22 -176 29 -225 2 -16 7 -57 10 -90 4 -33 8 -71
11 -85 2 -14 7 -47 10 -75 3 -27 8 -69 11 -93 5 -36 4 -41 -10 -36 -10 4 -16
19 -17 43 0 20 -2 45 -4 56 -4 19 -11 72 -20 140 -2 17 -7 53 -10 80 -12 97
-14 111 -20 170 -4 32 -8 62 -10 65 -1 3 -6 39 -10 80 -7 80 -10 107 -18 155
-3 17 -8 55 -12 85 -3 30 -8 71 -10 90 -3 19 -8 62 -10 95 -6 58 -9 83 -20
135 -3 14 -8 54 -11 90 -13 152 -12 149 -62 181 -57 36 -64 36 -85 0z m-660
-615 c-5 -15 -55 -27 -127 -30 -59 -2 -62 -1 -27 8 24 6 36 14 33 23 -3 8 9
16 37 23 23 6 47 13 52 14 12 4 36 -25 32 -38z m53 -96 c9 -16 3 -21 -50 -38
-46 -15 -60 -16 -64 -6 -4 9 -13 11 -35 4 -18 -5 -31 -5 -31 0 0 5 11 10 25
12 14 2 25 8 25 13 -2 11 100 45 112 38 5 -2 12 -12 18 -23z m70 -132 c0 -13
-103 -39 -110 -27 -4 6 -23 8 -46 5 l-39 -6 38 12 c22 7 36 16 32 20 -4 4 13
12 36 18 24 6 49 13 54 14 10 4 35 -22 35 -36z m47 -95 c-12 -12 -160 -73
-165 -68 -3 2 17 14 44 25 27 11 63 27 79 34 32 16 52 20 42 9z m-46 -99 c-46
-19 -85 -33 -87 -31 -6 6 137 66 156 66 8 0 -23 -16 -69 -35z m109 -23 c12
-23 12 -23 -58 -49 -52 -20 -52 -20 -63 0 -13 24 -9 28 44 49 56 22 64 22 77
0z m25 -60 c-14 -12 -158 -72 -163 -67 -2 3 14 12 35 21 21 9 56 25 78 35 44
21 65 25 50 11z m39 -69 l14 -28 -60 -23 c-59 -23 -62 -23 -75 -6 -17 25 -16
35 5 41 9 3 35 14 57 25 22 10 41 19 42 19 1 0 9 -13 17 -28z m61 -131 c-13
-12 -157 -72 -162 -68 -3 4 154 76 167 77 2 0 0 -4 -5 -9z m73 -126 c7 -14 12
-27 12 -29 0 -1 -23 -13 -50 -25 -39 -18 -54 -20 -65 -11 -10 9 -19 9 -35 0
-12 -6 -24 -9 -27 -6 -3 3 6 10 21 16 15 5 26 16 23 23 -4 11 73 56 99 57 6 0
16 -11 22 -25z m32 -91 c-8 -3 -34 -14 -58 -26 -24 -11 -46 -18 -49 -15 -7 8
78 45 102 45 13 0 15 -1 5 -4z m-120 -48 c0 -2 -9 -6 -20 -9 -11 -3 -18 -1
-14 4 5 9 34 13 34 5z m137 -62 c-29 -14 -46 -17 -55 -11 -16 13 -10 18 41 38
60 24 71 1 14 -27z"/>
</g>
</svg>
